<?xml version="1.0" encoding="UTF-8"?>
<!DOCTYPE svg PUBLIC "-//W3C//DTD SVG 1.1//EN" "http://www.w3.org/Graphics/SVG/1.1/DTD/svg11.dtd">
<svg xmlns="http://www.w3.org/2000/svg" version="1.1" width="313px" height="133px" style="shape-rendering:geometricPrecision; text-rendering:geometricPrecision; image-rendering:optimizeQuality; fill-rule:evenodd; clip-rule:evenodd" xmlns:xlink="http://www.w3.org/1999/xlink">
<g><path style="opacity:0.906" fill="#9723c8" d="M 76.5,2.5 C 87.0878,1.5843 93.0878,6.41763 94.5,17C 92.7535,28.5685 89.2535,39.4018 84,49.5C 91.3187,40.0727 97.9854,40.406 104,50.5C 105.677,61.8022 101.177,69.3022 90.5,73C 94.943,78.318 97.443,84.4846 98,91.5C 103.702,86.6172 107.535,80.4506 109.5,73C 110.047,62.6724 114.047,54.0058 121.5,47C 128.366,43.3391 134.866,43.8391 141,48.5C 141.454,45.3885 143.287,43.7218 146.5,43.5C 148.949,43.98 151.115,44.98 153,46.5C 153.055,53.8459 152.555,61.1793 151.5,68.5C 152.005,74.8795 152.838,81.2128 154,87.5C 154.249,88.624 154.749,89.624 155.5,90.5C 160.606,82.9415 164.106,74.6082 166,65.5C 165.346,59.5355 165.012,53.5355 165,47.5C 167.754,41.3729 172.254,39.5395 178.5,42C 179.701,42.9025 180.535,44.0692 181,45.5C 181.016,49.9301 179.849,54.0968 177.5,58C 179.533,61.8984 181.7,65.7318 184,69.5C 188.248,66.3759 192.915,64.0425 198,62.5C 199.28,62.6135 200.113,63.2801 200.5,64.5C 195.864,67.3039 191.364,70.3039 187,73.5C 188.43,78.8307 189.263,84.3307 189.5,90C 189.906,103.263 183.573,109.263 170.5,108C 163.957,105.422 161.123,100.588 162,93.5C 158.063,98.2169 153.563,98.7169 148.5,95C 143.531,89.104 140.698,82.2706 140,74.5C 137.896,82.0364 134.73,89.0364 130.5,95.5C 120.023,98.3332 113.523,94.3332 111,83.5C 108.785,88.0997 105.952,92.2664 102.5,96C 96.4,98.0142 91.2334,96.5142 87,91.5C 84.4051,86.049 82.4051,80.3823 81,74.5C 79.2859,73.0745 77.9525,73.4078 77,75.5C 74.9234,82.6406 73.0901,89.8072 71.5,97C 68.15,97.9299 65.3167,97.0965 63,94.5C 62.1613,89.773 61.1613,85.1063 60,80.5C 57.7971,85.7443 54.9638,90.5777 51.5,95C 44.7607,97.1982 39.2607,95.3649 35,89.5C 33.0852,82.9327 31.5852,76.266 30.5,69.5C 27.667,70.9332 24.667,71.5999 21.5,71.5C 24.7954,82.6929 25.2954,94.0262 23,105.5C 22.2366,109.762 19.7366,111.429 15.5,110.5C 7.98953,110.159 3.82286,106.159 3,98.5C -0.685036,75.7165 -0.0183697,53.0498 5,30.5C 6.27674,23.0799 10.1101,17.5799 16.5,14C 30.3223,13.1823 35.489,19.6823 32,33.5C 29.4504,44.4317 23.9504,53.5984 15.5,61C 19.709,68.5604 25.209,69.3937 32,63.5C 32.1201,56.9294 33.2868,50.596 35.5,44.5C 38.146,43.6382 40.8127,43.8049 43.5,45C 45.6349,45.7589 46.9682,47.2589 47.5,49.5C 43.9184,63.1398 43.7517,76.8065 47,90.5C 56.7337,80.8932 60.9004,69.3932 59.5,56C 59.3516,42.5289 61.185,29.3623 65,16.5C 67.5945,10.746 71.4278,6.07929 76.5,2.5 Z M 83.5,8.5 C 85.7761,8.75648 86.9428,10.0898 87,12.5C 88.5328,28.9008 83.8661,43.2341 73,55.5C 73.0772,44.489 74.0772,33.489 76,22.5C 77.2113,17.0735 79.7113,12.4068 83.5,8.5 Z M 22.5,20.5 C 23.7899,21.0577 24.6232,22.0577 25,23.5C 26.8369,34.1703 24.8369,44.1703 19,53.5C 17.5784,55.6381 15.745,56.8047 13.5,57C 14.2237,44.2718 17.2237,32.1051 22.5,20.5 Z M 93.5,48.5 C 94.4232,56.1933 91.7565,62.6933 85.5,68C 83.8659,68.4935 82.1992,68.6602 80.5,68.5C 82.3446,60.1263 86.678,53.4597 93.5,48.5 Z M 133.5,49.5 C 136.915,52.4922 138.915,56.3255 139.5,61C 137.693,72.4423 133.193,82.6089 126,91.5C 122.287,79.2884 122.954,67.2884 128,55.5C 129.36,52.9774 131.193,50.9774 133.5,49.5 Z M 79.5,54.5 C 77.2501,59.4004 75.0834,64.4004 73,69.5C 71.1847,62.6475 73.3514,57.6475 79.5,54.5 Z M 13.5,69.5 C 15.1632,71.4927 16.3299,73.8261 17,76.5C 19.2326,84.6908 18.8993,92.6908 16,100.5C 14.4493,90.2248 13.616,79.8914 13.5,69.5 Z M 169.5,69.5 C 171.059,71.6076 172.392,73.9409 173.5,76.5C 170.858,80.3094 168.025,83.9761 165,87.5C 166.479,81.5827 167.979,75.5827 169.5,69.5 Z M 173.5,86.5 C 174.267,87.172 174.934,88.0053 175.5,89C 174.994,93.519 173.494,97.6856 171,101.5C 169.46,99.0454 169.126,96.3787 170,93.5C 171.18,91.1401 172.347,88.8068 173.5,86.5 Z"/></g>
<g><path style="opacity:0.872" fill="#9723c8" d="M 38.5,18.5 C 42.4257,18.0466 45.5923,19.3799 48,22.5C 47.8596,27.2272 46.6929,31.7272 44.5,36C 41.1961,37.0419 39.0295,35.8753 38,32.5C 35.9268,27.6955 36.0935,23.0288 38.5,18.5 Z"/></g>
<g><path style="opacity:0.872" fill="#9723c8" d="M 223.5,18.5 C 227.426,18.0466 230.592,19.3799 233,22.5C 232.86,27.2272 231.693,31.7272 229.5,36C 226.196,37.0419 224.029,35.8753 223,32.5C 220.927,27.6955 221.093,23.0288 223.5,18.5 Z"/></g>
<g><path style="opacity:0.903" fill="#9723c8" d="M 221.5,43.5 C 226.495,43.3065 230.161,45.3065 232.5,49.5C 228.918,63.1398 228.752,76.8065 232,90.5C 241.402,80.3594 246.402,68.3594 247,54.5C 251.395,44.3595 258.895,41.1928 269.5,45C 275.767,46.9337 279.601,51.1004 281,57.5C 281.407,64.6735 281.574,71.6735 281.5,78.5C 287.093,74.6493 290.093,69.316 290.5,62.5C 291.833,62.5 293.167,62.5 294.5,62.5C 294.1,73.3711 288.934,80.7045 279,84.5C 274.387,97.0364 266.22,99.8697 254.5,93C 250.279,89.3948 247.446,84.8948 246,79.5C 243.21,84.9172 240.043,90.0839 236.5,95C 226.588,97.4503 220.421,93.617 218,83.5C 216.432,70.9392 216.932,58.4392 219.5,46C 220.056,44.9889 220.722,44.1556 221.5,43.5 Z M 265.5,48.5 C 269.417,49.2483 271.917,51.5817 273,55.5C 273.538,60.1709 274.038,64.8376 274.5,69.5C 272.61,69.2965 271.11,69.9632 270,71.5C 269.209,74.7525 269.709,77.7525 271.5,80.5C 270.618,84.9588 268.284,88.2922 264.5,90.5C 255.509,76.3677 255.842,62.3677 265.5,48.5 Z"/></g>
<g><path style="opacity:0.903" fill="#9723c8" d="M 202.5,82.5 C 208.816,81.5762 213.983,83.5762 218,88.5C 218.905,93.6975 216.739,96.3642 211.5,96.5C 202.3,95.3905 199.3,90.7239 202.5,82.5 Z"/></g>
</svg>
